<svg xmlns="http://www.w3.org/2000/svg" xmlns:xlink="http://www.w3.org/1999/xlink" width="1920" height="1080" viewBox="0 0 1920 1080">
  <defs>
    <clipPath id="clip-path">
      <rect id="Rectangle_1_copy" data-name="Rectangle 1 copy" width="1820" height="980" rx="60" transform="translate(50 50)" fill="#f4f3ff"/>
    </clipPath>
    <clipPath id="clip-path-2">
      <rect id="Rectangle_99" data-name="Rectangle 99" width="291.522" height="795.941" fill="none"/>
    </clipPath>
    <clipPath id="clip-Canvas">
      <rect width="1920" height="1080"/>
    </clipPath>
  </defs>
  <g id="Canvas" clip-path="url(#clip-Canvas)">
    <rect width="1920" height="1080" fill="rgba(0,0,0,0)"/>
    <g id="Screen_Add_Task">
      <g id="Rectangle_1_copy-2" data-name="Rectangle 1 copy">
        <rect id="Rectangle_1_copy-3" data-name="Rectangle 1 copy" width="1820" height="980" rx="60" transform="translate(50 50)" fill="#f4f3ff"/>
        <g id="Clip" clip-path="url(#clip-path)">
          <path id="Shape_4_copy_2" data-name="Shape 4 copy 2" d="M-592.01,1576.833s322.531-776.6,789.431-914.943S904.383,731.21,1213.9,717.084s481.513-397.639,556.024-545.275,491.878,1123.458,491.878,1123.458L-526.872,2087.659Z" fill="#f8f7ff"/>
        </g>
      </g>
      <path id="ZUZAPP_copy_2" data-name="ZUZAPP copy 2" d="M163.935,133.153c-5.756,0-9.153-5.565-9.153-14.883V105.425l4.556-.166v12.919c0,6.041,1.325,8.494,4.6,8.466.035.01,7.469-.063,7.582-.064,3.306-.068,4.662-2.6,4.662-8.73h0V104.646L181,104.47v13.287c0,9.581-3.566,15.336-9.464,15.4ZM120,127.119l22.986-15.137L120,112.634v-5.96l33.224-1.211v5.863L129.607,126.68l23.617-.208V132.7l-33.224.02Zm62.632-.5,17.774-16.238-17.774.5v-6.474l27.263-.993v6.3l-18.2,16.436,18.2-.159v6.7l-27.263.015Zm59.2-24.362,24.447-.89c6.947-.253,8.8,7.12,8.8,11.054,0,5.578-2.2,12.113-8.35,12.173l-19.238.188v7.888l-5.662,0Zm24.447,6.24-18.785.531V117.8l19.238-.346c2.643-.048,2.674-4.026,2.674-4.194,0-1.443-.3-4.772-3.03-4.771Zm-47.91-5.4,14.108-.515,7.806,30.077-5.649,0-1.708-6.627-14.988.127-1.642,6.511-5.333,0Zm3.71,6.633-2.437,9.671,11.525-.193-2.491-9.665Zm55.1-8.755L303.728,100c7.559-.274,9.578,7.415,9.578,11.519,0,5.82-2.4,12.64-9.085,12.7l-20.905.205v8.219l-6.145,0Zm26.558,6.469-20.413.576v9.147l20.905-.375c2.875-.051,2.909-4.2,2.909-4.377,0-1.5-.325-4.972-3.29-4.972Z" fill="#8a77e8"/>
      <g id="Vector_Smart_Object" data-name="Vector Smart Object" transform="translate(1176.239 151)">
        <g id="Group_4" data-name="Group 4">
          <g id="Group_3" data-name="Group 3" clip-path="url(#clip-path-2)">
            <path id="Path_77" data-name="Path 77" d="M48.9,99.244c-6.274,29.007-16.792,56.941-25.189,85.409-8.643,29.3-17.358,59.116-17.255,89.662a159.8,159.8,0,0,0,43.29,108.091c10.713,11.319,23.222,21.213,31.476,34.429S92.519,448.194,83.3,460.76c-13.295,18.122-41.741,14.2-61.185,25.52C-2.364,500.534-5.768,536.872,8.19,561.485S85.709,656.518,176.4,639.079c40.595-7.8,95.615-46.341,94.044-87.55-1.633-42.91-42.707-77.666-41.31-120.585.915-28.117,19.865-51.881,36.267-74.763s31.685-50.763,24.135-77.867c-11.118-39.9-62.628-52.223-87.572-85.326-16.065-21.315-19.6-49.354-20.6-76s-.314-53.958-9.225-79.1C150.529-23.1,73.8-15.821,48.9,99.244" fill="#c4b8ff"/>
            <rect id="Rectangle_96" data-name="Rectangle 96" width="4.268" height="462.478" transform="translate(142.091 252.584)" fill="#40327a"/>
            <path id="Path_78" data-name="Path 78" d="M146.331,386.214l-4.212-.69c6.9-41.839,54.6-67.857,56.627-68.945l2.021,3.751c-.478.255-47.88,26.131-54.436,65.884" fill="#40327a"/>
            <path id="Path_79" data-name="Path 79" d="M142.119,568.338c-4.663-28.255-38.456-46.712-38.8-46.895l2.025-3.751c1.464.786,35.979,19.615,40.985,49.956Z" fill="#40327a"/>
            <path id="Path_80" data-name="Path 80" d="M167.873,795.941H119.848A52.745,52.745,0,0,1,67.037,743.26V699.094H220.683V743.26a52.744,52.744,0,0,1-52.809,52.681" fill="#ffc359"/>
            <path id="Path_81" data-name="Path 81" d="M94.315,791.8A54.688,54.688,0,0,1,64.9,743.26V727.017h4.268V743.26A50.448,50.448,0,0,0,96.3,788.037Z" fill="#40327a"/>
            <rect id="Rectangle_97" data-name="Rectangle 97" width="153.646" height="4.258" transform="translate(67.037 712.933)" fill="#fff"/>
            <rect id="Rectangle_98" data-name="Rectangle 98" width="97.871" height="4.258" transform="translate(122.812 696.967)" fill="#40327a"/>
          </g>
        </g>
      </g>
      <g id="Vector_Smart_Object-2" data-name="Vector Smart Object" transform="translate(1103 947)">
        <rect id="Rectangle_100" data-name="Rectangle 100" width="285.419" height="2.088" transform="translate(48.853 0)" fill="#c4b8ff"/>
        <rect id="Rectangle_101" data-name="Rectangle 101" width="124.185" height="2.088" transform="translate(265.351 15.912)" fill="#c4b8ff"/>
        <rect id="Rectangle_102" data-name="Rectangle 102" width="227.153" height="2.088" transform="translate(0 15.912)" fill="#c4b8ff"/>
        <rect id="Rectangle_103" data-name="Rectangle 103" width="58.041" height="2.088" transform="translate(368.959 0.243)" fill="#c4b8ff"/>
      </g>
      <text id="Let_s_ZU_it_" data-name="Let’s ZU it!" transform="translate(154.006 156.164)" fill="#8a77e8" font-size="24" font-family="SegoeUI, Segoe UI" letter-spacing="0.04em"><tspan x="0" y="0">Let’s ZU it!</tspan></text>
    </g>
  </g>
</svg>
